<?xml version="1.0" encoding="UTF-8"?>
<svg width="94px" height="94px" viewBox="0 0 94 94" version="1.1" xmlns="http://www.w3.org/2000/svg" xmlns:xlink="http://www.w3.org/1999/xlink">
    <title>bee-logo</title>
    <defs>
        <rect id="path-1" x="0" y="0" width="94" height="94"></rect>
    </defs>
    <g id="Symbols" stroke="none" stroke-width="1" fill="none" fill-rule="evenodd">
        <g id="bee-logo">
            <mask id="mask-2" fill="white">
                <use xlink:href="#path-1"></use>
            </mask>
            <g id="Rectangle"></g>
            <g mask="url(#mask-2)" fill="#262630" fill-rule="nonzero" id="icon">
                <g transform="translate(46.000000, 48.000000) rotate(-315.000000) translate(-46.000000, -48.000000) translate(-3.000000, -3.000000)">
                    <path d="M86.0938235,35.9478281 C81.2250093,31.0956562 75.0880165,28.2675469 69.2108964,26.6451094 C66.646553,19.5816094 62.8867953,14.0401406 58.3921977,10.767375 C62.1951342,8.65645312 64.7738706,4.62267187 64.7738706,-2.83106871e-14 L60.4519884,-2.83106871e-14 C60.4519884,4.33579687 56.9656967,7.86675 52.6446141,7.99664062 L52.6158282,7.99664062 C52.6014352,8.01098437 52.6014352,8.01098437 52.5870423,7.99664062 C51.420414,7.70896875 50.2242001,7.5511875 49,7.5511875 C47.7757999,7.5511875 46.579586,7.70896875 45.4129577,7.99584375 C45.3985648,8.0101875 45.3985648,8.0101875 45.3841718,7.99584375 L45.3553859,7.99584375 C41.0335037,7.86675 37.5480116,4.33579687 37.5480116,-2.83106871e-14 L33.2261294,-2.83106871e-14 C33.2261294,4.62267187 35.8048658,8.65645312 39.6078023,10.767375 C35.1132047,14.0401406 31.353447,19.5824062 28.7891036,26.6451094 C22.9119835,28.2675469 16.7749907,31.0956562 11.9061765,35.9478281 C-3.60862107,51.4087969 -1.63438847,64.3436719 4.76087776,70.717875 C9.57212019,75.5270156 18.0999414,77.8244062 28.6451741,72.0956719 C31.7852355,80.9107031 36.7699929,87.3996562 42.7190777,90.1122187 C44.0440285,90.7154531 45.4273506,91.1314219 46.8386591,91.3465781 L46.8386591,102 L51.1605413,102 L51.1605413,91.3481719 C58.9103438,90.199875 65.5079109,82.8638437 69.3548259,72.082125 C70.4926683,72.6997031 71.6161178,73.2304219 72.6971881,73.6615312 C75.8084635,74.9245781 78.7038447,75.4704375 81.3545458,75.4704375 C86.3528966,75.4704375 90.4300987,73.5180937 93.2391222,70.7186719 C99.6343885,64.3436719 101.608621,51.4087969 86.0938235,35.9478281 Z M49,11.8582969 C52.3423622,11.8582969 55.5112094,13.5524531 58.2914471,16.4953125 C60.4663813,18.7919062 62.3966355,21.8503125 63.9814589,25.4537812 C56.2460493,24.0895312 49.8931623,24.5341875 49,24.6067031 C48.3227319,24.5493281 44.5054024,24.2767969 39.3055504,24.7501406 C37.6631552,24.9079219 35.8768305,25.1230781 34.0185411,25.4537812 C37.6487623,17.1989531 43.0653081,11.8582969 49,11.8582969 Z M44.9379904,56.6633906 C46.767494,53.4766875 48.0780518,50.088375 49,46.8004687 C49.8211976,49.7289844 50.9446471,52.714875 52.4575058,55.5716719 C52.6446141,55.9302656 52.8461154,56.304 53.0628092,56.6625937 L44.9379904,56.6633906 L44.9379904,56.6633906 Z M54.905906,59.5345313 C55.9142119,60.9561563 57.0520544,62.3196094 58.3346259,63.597 C59.5156472,64.7739844 60.6974681,65.8649063 61.8497035,66.841875 L36.1502965,66.841875 C37.3025319,65.8657031 38.4835532,64.7747813 39.6653741,63.597 C40.947146,62.3196094 42.0857881,60.9553594 43.094094,59.5345313 L54.905906,59.5345313 Z M31.1951246,65.2768125 C29.8845668,66.2529844 28.6019953,67.1144062 27.3202234,67.8467344 C19.6567786,72.2685937 12.5258728,72.369 7.81538101,67.6746094 C1.2465998,61.1282812 4.05562334,49.8732187 14.9598801,38.9910937 C18.4605647,35.502375 22.8248262,33.1770937 27.2186731,31.6550625 C28.8898542,31.0805156 30.5610353,30.6215156 32.188238,30.2485781 C33.7442755,29.8899844 35.2563346,29.6166562 36.7116215,29.4158437 C40.2554849,28.9138125 43.3811533,28.7982656 45.5568872,28.7982656 C46.0182611,28.7982656 46.4500495,28.7982656 46.8242661,28.8126094 C46.8242661,29.0707969 46.8242661,29.344125 46.8386591,29.631 C46.8242661,30.0039375 46.8242661,30.4063594 46.8242661,30.8366719 C46.7666943,36.6937031 45.7727814,48.0069375 39.8228969,56.6633906 C39.1456288,57.6539062 38.3963959,58.6157344 37.561605,59.5345312 C37.2593531,59.8787812 36.9275157,60.2238281 36.5964779,60.5537344 C35.0980122,62.0470781 33.5859531,63.3961875 32.0874874,64.5731719 C31.7852355,64.8178125 31.4973765,65.0473125 31.1951246,65.2768125 Z M49,87.2275313 C44.7500825,87.2275313 40.7456447,84.4854844 37.4904398,79.8771563 L60.5103598,79.8771563 C57.2543553,84.4854844 53.2499175,87.2275313 49,87.2275313 Z M62.2958848,77.0060156 L35.7041152,77.0060156 C35.026847,75.8146875 34.3935574,74.5365 33.8170399,73.1730469 C33.341273,72.0677812 32.8950916,70.9194844 32.4912895,69.7130156 L65.5087105,69.7130156 C64.6011552,72.3976875 63.5352775,74.8385156 62.2958848,77.0060156 Z M90.184619,67.6746094 C86.1226094,71.7370781 80.2302967,72.2112187 73.7478732,69.3974531 C72.7395673,68.9527969 71.7168684,68.435625 70.6797766,67.8467344 C69.3980047,67.1000625 68.1010402,66.2529844 66.8048754,65.2768125 C65.0041577,63.9133594 63.2034401,62.3482969 61.4027225,60.5537344 C61.0716847,60.2238281 60.7398473,59.8787812 60.4375954,59.5345312 C59.6020049,58.6300781 58.852772,57.66825 58.1763035,56.6633906 C52.1408609,47.8921875 51.2181131,36.3351094 51.1749343,30.5497969 L51.1749343,29.8461563 C51.1749343,29.4732188 51.1749343,29.1281719 51.1893272,28.8126094 C53.9983507,28.7408906 59.6451837,28.8412969 65.7965695,30.2485781 C67.4389647,30.6215156 69.1245387,31.0813125 70.7949202,31.6702031 C70.838099,31.6845469 70.8812779,31.6988906 70.9244567,31.7132344 C75.2751248,33.2352656 79.5674216,35.5318594 83.0393203,38.9918906 C93.9443767,49.8732187 96.7534002,61.1282812 90.184619,67.6746094 Z"></path>
                </g>
            </g>
        </g>
    </g>
</svg>