<?xml version="1.0" encoding="UTF-8"?>
<svg version="1.1" width="180px" height="180px" viewBox="0 0 180.0 180.0" xmlns="http://www.w3.org/2000/svg" xmlns:xlink="http://www.w3.org/1999/xlink">
    <defs>
        <clipPath id="i0">
            <path d="M1280,0 L1280,1080 L0,1080 L0,0 L1280,0 Z"></path>
        </clipPath>
        <clipPath id="i1">
            <path d="M138.461538,0 C161.403231,0 180,18.5967692 180,41.5384615 L180,138.461538 C180,161.403231 161.403231,180 138.461538,180 L41.5384615,180 C18.5967692,180 0,161.403231 0,138.461538 L0,41.5384615 C0,18.5967692 18.5967692,0 41.5384615,0 L138.461538,0 Z"></path>
        </clipPath>
        <clipPath id="i2">
            <path d="M49.8383245,0 C62.5684784,0 75.295863,4.84476923 84.9867861,14.5356923 L85.0823245,14.6367692 C98.0935553,27.6521538 102.556171,47.178 97.2835553,64.4663077 C94.6181707,66.762 91.0832476,68.9483077 89.0395553,69.9466154 C97.7155553,53.0473846 94.5572476,31.9486154 81.0807861,18.4624615 C67.1349399,4.51661538 46.2272476,1.81107692 29.5924784,10.4303077 C25.5147861,12.528 21.2737092,16.0116923 21.2737092,16.0116923 C20.3612476,16.7856923 19.4667861,17.5915385 18.6055553,18.4513846 C10.5692476,26.4890769 5.98063224,37.1713846 5.68709378,48.5307692 L5.6801707,48.6775385 C5.41155532,59.9801538 9.43524762,70.8687692 17.0284784,79.2733846 C17.4881707,79.7704615 17.9395553,80.2703077 18.4089399,80.7424615 L18.5321707,80.874 C26.6944784,89.0335385 36.973863,94.5041538 48.2584784,96.6890769 C53.6986322,97.7427692 59.2606322,98.0086154 64.7852476,97.4796923 C68.4724784,97.1266154 72.1334015,96.4163077 75.6627861,95.3709231 C77.4406322,94.8461538 79.2143245,94.2244615 80.9381707,93.5266154 C88.0800169,90.6313846 94.4894015,86.3736923 99.991863,80.874 C109.839248,71.0266154 115.697555,58.032 116.690325,44.3173846 C118.410017,38.2333846 118.972171,31.8807692 118.314478,25.6043077 C117.414478,16.6652308 114.120478,8.18723077 108.745401,0.978923077 C110.487248,3.18323077 112.105863,5.50107692 113.551401,7.93523077 C115.253094,10.7972308 116.740171,13.8295385 117.971094,16.9476923 C118.245248,17.6413846 118.50694,18.3392308 118.756171,19.0412308 C120.599094,24.2446154 121.753863,29.6570769 122.188632,35.1290769 L122.224632,35.5638462 C123.553863,53.8781538 116.877248,71.82 103.907555,84.7896923 C97.8789399,90.8169231 90.8506322,95.4844615 83.0192476,98.6593846 C81.1292476,99.4250769 79.1824784,100.104923 77.2343245,100.682308 C73.3657092,101.828769 69.3544784,102.605538 65.3127861,102.993231 C63.2967861,103.185692 61.2766322,103.281231 59.2592476,103.281231 C55.2161707,103.281231 51.1814015,102.896308 47.2061707,102.126462 C34.831863,99.7296923 23.5624784,93.7356923 14.6164784,84.7896923 L14.5084784,84.6803077 C13.2554015,83.412 12.079863,82.1187692 10.8794015,80.6912308 C-4.94121391,60.8621538 -3.33506007,32.4443077 14.5735553,14.5356923 C17.9672476,11.142 21.817863,8.27030769 26.0146322,5.99123077 C26.7650938,5.62292308 27.4906322,5.27538462 28.2037092,4.94307692 C29.3584784,4.38646154 30.5284784,3.87553846 31.7137092,3.41307692 C32.149863,3.23861538 32.581863,3.08076923 33.0152476,2.92292308 C33.1481707,2.87446154 33.2797092,2.82046154 33.4126322,2.77476923 C33.4957092,2.74430769 33.5787861,2.71107692 33.6604784,2.682 L33.6521707,2.69723077 C38.8874015,0.902769231 44.3621707,0 49.8383245,0 Z"></path>
        </clipPath>
        <clipPath id="i3">
            <path d="M57.078361,0.288821024 C63.1277456,-0.289948206 69.2214379,0.00220563966 75.1849764,1.15559026 C87.5592841,3.55097487 98.8300533,9.47712872 107.776053,18.4231287 L109.830823,20.4432826 C116.82313,28.3037441 121.064207,38.0500518 122.106823,48.4097441 C123.625746,62.8734364 118.783746,77.7802056 107.816207,88.7463595 C104.387899,92.1746672 100.465284,95.0089749 96.2228225,97.2977441 C88.902361,101.225898 80.766361,103.135283 72.6635918,103.135283 C59.9818995,103.136667 47.3029764,98.3278979 37.6258995,88.7089749 L37.4182072,88.5012826 C24.3695918,75.3792826 19.8986687,55.9738979 25.218361,38.6925133 C27.7812841,36.5352826 30.5338995,34.722821 33.4166687,33.2440518 C24.7129764,50.1502056 27.9335918,71.1755903 41.4225148,84.6742056 L41.5125148,84.7642056 C58.7412841,101.905744 86.7022072,101.878052 103.896361,84.6838979 C111.932669,76.6475903 116.521284,65.9652826 116.814823,54.6045133 C116.888207,51.5625133 116.647284,48.5620518 116.126669,45.6349749 C114.854207,38.6897441 111.906361,31.9646672 107.224976,26.0980518 C106.160207,24.8325133 105.084361,23.6500518 103.982207,22.5409749 L103.858976,22.410821 C95.6952841,14.2471287 85.4172841,8.77789795 74.1326687,6.59297487 C68.6911302,5.54066718 63.1291302,5.27482102 57.6058995,5.80235949 C53.9255918,6.15543641 50.2646687,6.86435949 46.7255918,7.91112872 C44.9435918,8.44005179 43.1685148,9.06035949 41.4515918,9.75682102 C34.308361,12.6534364 27.8989764,16.9111287 22.3992841,22.4094364 C12.5712841,32.2374364 6.72128408,45.198821 5.71189947,58.8815903 C1.45143793,73.8520518 4.31343793,90.4895903 14.6482072,103.463436 C12.510361,100.925436 10.5469764,98.2212826 8.838361,95.346821 C7.13805331,92.4875903 5.652361,89.4538979 4.42005331,86.3357441 C4.14589947,85.6392826 3.88282254,84.942821 3.63497639,84.240821 C1.79205331,79.0402056 0.637284081,73.6263595 0.20251485,68.1529749 L0.16651485,67.7195903 C-1.16271592,49.4038979 5.51389947,31.4620518 18.4835918,18.4937441 C24.5094379,12.4678979 31.536361,7.8017441 39.3705148,4.62405179 C41.2535918,3.8597441 43.1975918,3.17989795 45.1540533,2.60112872 C49.032361,1.45328256 53.0449764,0.675128717 57.078361,0.288821024 Z"></path>
        </clipPath>
    </defs>
    <g transform="translate(-390.0 -91.0)">
        <g clip-path="url(#i0)">
            <g transform="translate(390.0 91.0)">
                <g clip-path="url(#i1)">
                    <polygon points="0,0 180,0 180,180 0,180 0,0" stroke="none" fill="#f9c834"></polygon>
                </g>
                <g transform="translate(30.701152376453415 49.76169230769229)">
                    <g clip-path="url(#i2)">
                        <polygon points="0,0 122.391147,0 122.391147,103.281231 0,103.281231 0,0" stroke="none" fill="#828282"></polygon>
                    </g>
                </g>
                <g transform="translate(26.90811591947893 26.956532821877538)">
                    <g clip-path="url(#i3)">
                        <polygon points="7.10542736e-15,4.4408921e-16 122.379252,4.4408921e-16 122.379252,103.463436 7.10542736e-15,103.463436 7.10542736e-15,4.4408921e-16" stroke="none" fill="#000000"></polygon>
                    </g>
                </g>
            </g>
        </g>
    </g>
</svg>