<svg xmlns="http://www.w3.org/2000/svg" xmlns:xlink="http://www.w3.org/1999/xlink" width="30" zoomAndPan="magnify" viewBox="0 0 375 374.999991" height="30" preserveAspectRatio="xMidYMid meet" version="1.0"><defs><clipPath id="d07e2da0cb"><path d="M 141.46875 112.5 L 233.71875 112.5 L 233.71875 219 L 141.46875 219 Z M 141.46875 112.5 " clip-rule="nonzero"/></clipPath><clipPath id="e9d55c3786"><path d="M 167 229 L 201 229 L 201 262.5 L 167 262.5 Z M 167 229 " clip-rule="nonzero"/></clipPath><clipPath id="8b5690fe8e"><path d="M 73.472656 73.472656 L 301.472656 73.472656 L 301.472656 301.472656 L 73.472656 301.472656 Z M 73.472656 73.472656 " clip-rule="nonzero"/></clipPath><clipPath id="e2face1e2e"><path d="M 187.496094 73.472656 C 124.519531 73.472656 73.472656 124.519531 73.472656 187.496094 C 73.472656 250.46875 124.519531 301.519531 187.496094 301.519531 C 250.46875 301.519531 301.519531 250.46875 301.519531 187.496094 C 301.519531 124.519531 250.46875 73.472656 187.496094 73.472656 Z M 187.496094 73.472656 " clip-rule="nonzero"/></clipPath></defs><g clip-path="url(#d07e2da0cb)"><path fill="#ffffff" d="M 227.445312 129.898438 C 223.484375 124.261719 218.023438 119.941406 211.066406 116.96875 C 204.136719 114 196.125 112.5 187.066406 112.5 C 178.816406 112.5 171.285156 113.96875 164.476562 116.910156 C 157.664062 119.820312 152.175781 124.289062 148.035156 130.199219 C 144.734375 134.910156 142.695312 140.609375 141.855469 147.300781 C 141.496094 150.210938 143.804688 152.789062 146.746094 152.789062 L 164.984375 152.789062 C 167.324219 152.789062 169.304688 151.140625 169.816406 148.859375 C 170.265625 146.820312 171.015625 144.988281 172.066406 143.429688 C 173.746094 140.910156 175.90625 138.988281 178.546875 137.699219 C 181.183594 136.410156 183.976562 135.75 186.945312 135.75 C 190.003906 135.75 192.765625 136.378906 195.316406 137.671875 C 197.835938 138.929688 199.84375 140.761719 201.34375 143.128906 C 202.84375 145.5 203.59375 148.230469 203.59375 151.378906 C 203.59375 154.351562 202.933594 157.019531 201.613281 159.390625 C 200.296875 161.761719 198.523438 163.949219 196.304688 165.898438 C 194.054688 167.878906 191.566406 169.738281 188.746094 171.570312 C 184.964844 173.941406 181.726562 176.578125 179.054688 179.488281 C 176.355469 182.398438 174.34375 186.210938 172.933594 190.949219 C 171.554688 195.691406 170.835938 202.019531 170.804688 209.96875 L 170.804688 213.929688 C 170.804688 216.628906 172.996094 218.851562 175.726562 218.851562 L 191.773438 218.851562 C 194.476562 218.851562 196.695312 216.660156 196.695312 213.929688 L 196.695312 209.96875 C 196.753906 205.5 197.324219 201.75 198.433594 198.71875 C 199.546875 195.691406 201.253906 192.988281 203.535156 190.679688 C 205.84375 188.371094 208.785156 186.148438 212.386719 183.988281 C 216.675781 181.441406 220.363281 178.589844 223.515625 175.410156 C 226.636719 172.261719 229.09375 168.601562 230.863281 164.488281 C 232.605469 160.378906 233.503906 155.640625 233.503906 150.328125 C 233.414062 142.351562 231.40625 135.539062 227.445312 129.898438 Z M 227.445312 129.898438 " fill-opacity="1" fill-rule="nonzero"/></g><g clip-path="url(#e9d55c3786)"><path fill="#ffffff" d="M 184.246094 229.890625 C 179.683594 229.890625 175.816406 231.480469 172.605469 234.660156 C 169.394531 237.839844 167.804688 241.679688 167.863281 246.121094 C 167.804688 250.621094 169.394531 254.488281 172.605469 257.699219 C 175.816406 260.910156 179.683594 262.5 184.246094 262.5 C 187.15625 262.5 189.855469 261.75 192.285156 260.28125 C 194.746094 258.78125 196.726562 256.828125 198.253906 254.339844 C 199.785156 251.851562 200.566406 249.121094 200.59375 246.121094 C 200.535156 241.648438 198.886719 237.839844 195.613281 234.660156 C 192.375 231.480469 188.566406 229.890625 184.246094 229.890625 Z M 184.246094 229.890625 " fill-opacity="1" fill-rule="nonzero"/></g><g clip-path="url(#8b5690fe8e)"><g clip-path="url(#e2face1e2e)"><path stroke-linecap="butt" transform="matrix(0.75, 0, 0, 0.75, 73.471063, 73.471058)" fill="none" stroke-linejoin="miter" d="M 152.033384 0.0021305 C 68.064629 0.0021305 0.0021245 68.064635 0.0021245 152.03339 C 0.0021245 235.996938 68.064629 304.06465 152.033384 304.06465 C 235.996932 304.06465 304.064644 235.996938 304.064644 152.03339 C 304.064644 68.064635 235.996932 0.0021305 152.033384 0.0021305 Z M 152.033384 0.0021305 " stroke="#ffffff" stroke-width="32" stroke-opacity="1" stroke-miterlimit="4"/></g></g></svg>