<svg xmlns="http://www.w3.org/2000/svg" xmlns:xlink="http://www.w3.org/1999/xlink" width="30" zoomAndPan="magnify" viewBox="0 0 375 374.999991" height="30" preserveAspectRatio="xMidYMid meet" version="1.0"><defs><clipPath id="4fd0e920bd"><path d="M 94.148438 56.25 L 280.898438 56.25 L 280.898438 318.75 L 94.148438 318.75 Z M 94.148438 56.25 " clip-rule="nonzero"/></clipPath></defs><g clip-path="url(#4fd0e920bd)"><path fill="#ffffff" d="M 263.332031 79.582031 L 251.492188 79.582031 C 250.035156 66.488281 238.890625 56.25 225.417969 56.25 C 211.914062 56.25 200.769531 66.488281 199.339844 79.582031 L 152.5 79.582031 C 150.953125 79.582031 149.464844 80.195312 148.359375 81.273438 L 95.859375 133.773438 C 94.777344 134.882812 94.167969 136.371094 94.167969 137.917969 L 94.167969 301.25 C 94.167969 310.902344 102.011719 318.75 111.667969 318.75 L 263.332031 318.75 C 272.957031 318.75 280.832031 310.902344 280.832031 301.25 L 280.832031 97.082031 C 280.832031 87.429688 272.957031 79.582031 263.332031 79.582031 Z M 225.417969 67.917969 C 232.445312 67.917969 238.335938 72.933594 239.707031 79.582031 L 211.125 79.582031 C 212.464844 72.933594 218.359375 67.917969 225.417969 67.917969 Z M 146.667969 99.503906 L 146.667969 126.25 C 146.667969 129.457031 144.042969 132.082031 140.832031 132.082031 L 114.058594 132.082031 Z M 269.167969 301.25 C 269.167969 304.457031 266.542969 307.082031 263.332031 307.082031 L 111.667969 307.082031 C 108.429688 307.082031 105.832031 304.457031 105.832031 301.25 L 105.832031 143.75 L 140.832031 143.75 C 150.457031 143.75 158.332031 135.902344 158.332031 126.25 L 158.332031 91.25 L 240 91.25 L 240 111.667969 C 240 119.714844 233.4375 126.25 225.417969 126.25 C 217.367188 126.25 210.832031 119.714844 210.832031 111.667969 C 210.832031 108.429688 208.207031 105.832031 205 105.832031 C 201.761719 105.832031 199.167969 108.429688 199.167969 111.667969 C 199.167969 126.132812 210.921875 137.917969 225.417969 137.917969 C 239.882812 137.917969 251.667969 126.132812 251.667969 111.667969 L 251.667969 91.25 L 263.332031 91.25 C 266.542969 91.25 269.167969 93.875 269.167969 97.082031 Z M 269.167969 301.25 " fill-opacity="1" fill-rule="nonzero"/></g><path fill="#ffffff" d="M 245.832031 277.917969 L 129.167969 277.917969 C 125.929688 277.917969 123.332031 280.511719 123.332031 283.75 C 123.332031 286.957031 125.929688 289.582031 129.167969 289.582031 L 245.832031 289.582031 C 249.042969 289.582031 251.667969 286.957031 251.667969 283.75 C 251.667969 280.511719 249.042969 277.917969 245.832031 277.917969 Z M 245.832031 277.917969 " fill-opacity="1" fill-rule="nonzero"/><path fill="#ffffff" d="M 245.832031 248.75 L 129.167969 248.75 C 125.929688 248.75 123.332031 251.347656 123.332031 254.582031 C 123.332031 257.792969 125.929688 260.417969 129.167969 260.417969 L 245.832031 260.417969 C 249.042969 260.417969 251.667969 257.792969 251.667969 254.582031 C 251.667969 251.347656 249.042969 248.75 245.832031 248.75 Z M 245.832031 248.75 " fill-opacity="1" fill-rule="nonzero"/><path fill="#ffffff" d="M 155.417969 231.25 L 219.582031 231.25 C 222.792969 231.25 225.417969 228.625 225.417969 225.417969 L 225.417969 216.667969 C 225.417969 203.628906 218.796875 192.136719 208.761719 185.3125 C 211.882812 180.996094 213.75 175.714844 213.75 170 C 213.75 155.535156 201.964844 143.75 187.5 143.75 C 173.003906 143.75 161.25 155.535156 161.25 170 C 161.25 175.714844 163.085938 180.996094 166.207031 185.3125 C 156.175781 192.136719 149.582031 203.628906 149.582031 216.667969 L 149.582031 225.417969 C 149.582031 228.625 152.179688 231.25 155.417969 231.25 Z M 187.5 155.417969 C 195.519531 155.417969 202.082031 161.949219 202.082031 170 C 202.082031 178.050781 195.519531 184.582031 187.5 184.582031 C 179.449219 184.582031 172.917969 178.050781 172.917969 170 C 172.917969 161.949219 179.449219 155.417969 187.5 155.417969 Z M 161.25 216.667969 C 161.25 206.488281 167.054688 197.679688 175.511719 193.332031 C 179.128906 195.171875 183.183594 196.25 187.5 196.25 C 191.816406 196.25 195.871094 195.171875 199.457031 193.332031 C 207.917969 197.679688 213.75 206.488281 213.75 216.667969 L 213.75 219.582031 L 161.25 219.582031 Z M 161.25 216.667969 " fill-opacity="1" fill-rule="nonzero"/></svg>