<svg xmlns="http://www.w3.org/2000/svg" xmlns:xlink="http://www.w3.org/1999/xlink" width="30" zoomAndPan="magnify" viewBox="0 0 375 374.999991" height="30" preserveAspectRatio="xMidYMid meet" version="1.0"><defs><clipPath id="cd7a6256ed"><path d="M 66.351562 66.570312 L 308.601562 66.570312 L 308.601562 308.070312 L 66.351562 308.070312 Z M 66.351562 66.570312 " clip-rule="nonzero"/></clipPath></defs><g clip-path="url(#cd7a6256ed)"><path fill="#ffffff" d="M 202.019531 247.070312 L 202.019531 276.277344 C 202.019531 278.425781 203.765625 280.171875 205.914062 280.171875 C 206.644531 280.171875 207.332031 279.964844 207.917969 279.613281 L 236.550781 265.140625 C 237.976562 264.429688 238.757812 262.957031 238.679688 261.460938 L 238.679688 232.464844 C 238.679688 230.324219 236.941406 228.589844 234.804688 228.589844 C 234.175781 228.589844 233.585938 228.742188 233.054688 229 L 204.175781 243.605469 C 202.816406 244.289062 202.03125 245.652344 202.019531 247.070312 Z M 209.808594 249.457031 L 230.917969 238.78125 L 230.917969 259.28125 L 209.808594 269.953125 Z M 126.792969 256.425781 C 125.828125 258.339844 123.492188 259.109375 121.578125 258.144531 L 101.925781 248.207031 C 100.011719 247.242188 99.238281 244.902344 100.203125 242.988281 C 101.171875 241.074219 103.507812 240.304688 105.421875 241.269531 L 125.074219 251.207031 C 126.988281 252.171875 127.761719 254.511719 126.792969 256.425781 Z M 307.199219 171.472656 L 291.402344 155.0625 L 307.199219 138.652344 C 308.683594 137.105469 308.636719 134.648438 307.089844 133.164062 C 306.800781 132.882812 306.484375 132.660156 306.148438 132.492188 L 243.378906 100.757812 L 243.378906 96.984375 C 243.378906 95.976562 242.992188 95.058594 242.363281 94.371094 C 236.03125 86.675781 195.847656 70.570312 189.28125 67.246094 C 188.21875 66.714844 186.925781 66.675781 185.785156 67.246094 C 179.214844 70.570312 139.039062 86.671875 132.699219 94.363281 C 132.070312 95.058594 131.679688 95.976562 131.679688 96.984375 L 131.679688 100.757812 L 68.90625 132.5 C 68.566406 132.667969 68.246094 132.890625 67.960938 133.167969 C 66.417969 134.652344 66.367188 137.109375 67.855469 138.65625 L 83.648438 155.066406 L 67.859375 171.472656 C 66.375 173.019531 66.421875 175.476562 67.96875 176.960938 C 68.257812 177.238281 68.570312 177.460938 68.910156 177.628906 L 85.164062 185.847656 L 85.15625 254.445312 C 85.074219 255.941406 85.863281 257.40625 87.289062 258.125 L 185.523438 307.792969 C 185.542969 307.804688 185.554688 307.8125 185.574219 307.816406 C 185.695312 307.890625 185.820312 307.949219 185.945312 308.011719 C 185.960938 308.015625 185.976562 308.023438 185.988281 308.027344 C 186.132812 308.089844 186.277344 308.144531 186.429688 308.1875 C 186.464844 308.199219 186.507812 308.203125 186.542969 308.214844 C 186.660156 308.246094 186.78125 308.269531 186.902344 308.289062 C 186.941406 308.292969 186.992188 308.300781 187.035156 308.308594 C 187.191406 308.324219 187.355469 308.34375 187.515625 308.34375 C 187.679688 308.34375 187.84375 308.332031 188 308.308594 C 188.046875 308.300781 188.089844 308.292969 188.132812 308.289062 C 188.253906 308.269531 188.375 308.246094 188.488281 308.214844 C 188.523438 308.203125 188.566406 308.199219 188.605469 308.1875 C 188.753906 308.144531 188.90625 308.089844 189.042969 308.027344 C 189.054688 308.023438 189.074219 308.015625 189.085938 308.011719 C 189.214844 307.957031 189.339844 307.890625 189.460938 307.816406 C 189.480469 307.804688 189.492188 307.800781 189.507812 307.792969 L 287.746094 258.125 C 289.167969 257.414062 289.953125 255.941406 289.875 254.445312 L 289.871094 185.847656 L 306.128906 177.625 C 306.46875 177.457031 306.789062 177.230469 307.070312 176.953125 C 308.640625 175.480469 308.691406 173.019531 307.199219 171.472656 Z M 191.421875 125.710938 C 199.796875 121.902344 223.34375 112.136719 235.589844 104.730469 L 235.589844 147.144531 L 191.421875 169.472656 Z M 183.632812 125.640625 L 183.632812 169.472656 L 139.46875 147.140625 L 139.46875 103.304688 Z M 187.527344 200.507812 L 184.285156 198.871094 L 97.648438 155.066406 L 131.683594 137.859375 L 131.683594 149.523438 C 131.683594 150.945312 132.464844 152.3125 133.824219 152.992188 L 185.523438 179.132812 C 185.535156 179.140625 185.554688 179.144531 185.566406 179.15625 C 185.695312 179.230469 185.828125 179.304688 185.960938 179.359375 C 185.964844 179.363281 185.976562 179.363281 185.984375 179.371094 C 186.128906 179.429688 186.277344 179.484375 186.4375 179.53125 C 186.472656 179.542969 186.503906 179.550781 186.539062 179.558594 C 186.660156 179.585938 186.785156 179.617188 186.914062 179.636719 C 186.957031 179.640625 186.992188 179.648438 187.035156 179.652344 C 187.195312 179.671875 187.359375 179.691406 187.523438 179.691406 C 187.535156 179.691406 187.542969 179.691406 187.554688 179.691406 C 187.703125 179.691406 187.855469 179.675781 188 179.660156 C 188.046875 179.652344 188.101562 179.648438 188.152344 179.636719 C 188.265625 179.617188 188.375 179.59375 188.488281 179.5625 C 188.53125 179.550781 188.578125 179.539062 188.621094 179.527344 C 188.765625 179.484375 188.910156 179.429688 189.054688 179.375 C 189.082031 179.363281 189.097656 179.351562 189.121094 179.34375 C 189.242188 179.292969 189.359375 179.230469 189.472656 179.164062 C 189.492188 179.152344 189.507812 179.144531 189.527344 179.132812 L 241.230469 152.992188 C 242.582031 152.308594 243.367188 150.945312 243.371094 149.523438 L 243.371094 137.859375 L 277.402344 155.0625 L 208.800781 189.75 Z M 243.378906 109.464844 L 297.953125 137.0625 L 285.203125 150.308594 L 280.820312 148.09375 L 243.371094 129.160156 L 243.371094 109.464844 Z M 187.527344 75.066406 L 230.875 96.984375 L 187.527344 118.902344 L 144.183594 96.984375 Z M 131.679688 109.464844 L 131.679688 129.160156 L 90.652344 149.90625 L 89.855469 150.308594 L 77.097656 137.054688 Z M 89.84375 159.832031 L 181.082031 205.960938 L 168.328125 219.207031 L 77.097656 173.070312 Z M 92.921875 189.777344 L 167.394531 227.4375 C 168.992188 228.246094 170.894531 227.835938 172.035156 226.5625 L 183.632812 214.507812 L 183.632812 298.140625 L 92.917969 252.277344 Z M 282.140625 252.277344 L 191.421875 298.140625 L 191.421875 214.503906 L 203.023438 226.554688 C 204.164062 227.828125 206.058594 228.238281 207.664062 227.429688 L 282.136719 189.773438 Z M 206.722656 219.199219 L 193.972656 205.953125 L 207.761719 198.980469 L 285.214844 159.824219 L 297.960938 173.066406 Z M 206.722656 219.199219 " fill-opacity="1" fill-rule="nonzero"/></g></svg>