<svg xmlns="http://www.w3.org/2000/svg" xmlns:xlink="http://www.w3.org/1999/xlink" width="30" zoomAndPan="magnify" viewBox="0 0 375 374.999991" height="30" preserveAspectRatio="xMidYMid meet" version="1.0"><defs><clipPath id="b399138fbb"><path d="M 78.179688 82.550781 L 295 82.550781 L 295 292.550781 L 78.179688 292.550781 Z M 78.179688 82.550781 " clip-rule="nonzero"/></clipPath></defs><g clip-path="url(#b399138fbb)"><path fill="#ffffff" d="M 286.265625 235.8125 C 279.582031 228.484375 269.191406 220.855469 256.671875 214.644531 L 256.507812 214.5625 C 255.289062 213.960938 254.078125 213.394531 252.863281 212.835938 L 252.863281 105.09375 C 252.863281 98.265625 246.527344 92.386719 236.28125 88.398438 C 227.011719 84.789062 214.285156 82.550781 200.304688 82.550781 C 186.320312 82.550781 173.59375 84.789062 164.320312 88.394531 C 154.078125 92.378906 147.738281 98.261719 147.738281 105.089844 L 147.738281 150.933594 C 142.429688 150.199219 136.734375 149.792969 130.804688 149.792969 C 116.824219 149.792969 104.097656 152.027344 94.820312 155.636719 C 84.578125 159.625 78.246094 165.507812 78.246094 172.335938 L 78.246094 269.917969 C 78.246094 276.746094 84.578125 282.628906 94.824219 286.613281 C 104.101562 290.226562 116.828125 292.457031 130.808594 292.457031 C 144.792969 292.457031 157.519531 290.21875 166.792969 286.613281 C 175.5625 283.203125 181.464844 278.398438 182.980469 272.804688 C 185.128906 273.109375 187.335938 273.367188 189.601562 273.558594 C 193.070312 273.851562 196.648438 274 200.304688 274 C 203.578125 274 206.816406 273.875 209.984375 273.632812 C 212.726562 273.425781 215.4375 273.113281 218.101562 272.722656 C 220.535156 274.136719 223.0625 275.511719 225.695312 276.816406 L 225.859375 276.898438 C 238.363281 283.082031 250.734375 286.714844 260.625 287.59375 C 271.558594 288.5625 279.835938 286.105469 282.863281 279.984375 L 293.6875 258.125 C 296.726562 252 293.664062 243.925781 286.265625 235.8125 Z M 253.609375 220.699219 C 265.378906 226.53125 275.078125 233.625 281.246094 240.382812 C 286.714844 246.378906 289.269531 251.761719 287.613281 255.109375 L 287.609375 255.113281 C 285.945312 258.460938 280.113281 259.6875 272.039062 258.96875 C 262.9375 258.160156 251.40625 254.738281 239.601562 248.890625 C 227.828125 243.058594 218.125 235.960938 211.957031 229.195312 C 206.488281 223.199219 203.9375 217.816406 205.59375 214.472656 C 207.25 211.125 213.082031 209.890625 221.164062 210.609375 C 228.832031 211.292969 238.226562 213.832031 248.050781 218.109375 C 248.105469 218.136719 248.15625 218.160156 248.210938 218.179688 C 249.992188 218.960938 251.785156 219.789062 253.589844 220.683594 Z M 188.671875 233.339844 C 187.367188 235.96875 187.191406 238.96875 188.003906 242.171875 C 187.609375 242.128906 187.214844 242.09375 186.824219 242.050781 C 185.660156 241.917969 184.511719 241.765625 183.371094 241.597656 L 183.371094 224.066406 C 185.03125 224.292969 186.753906 224.496094 188.546875 224.664062 C 189.945312 224.792969 191.367188 224.894531 192.8125 224.984375 Z M 246.0625 202.667969 C 246.0625 203.683594 245.683594 204.714844 244.96875 205.738281 C 244.300781 206.695312 243.367188 207.632812 242.195312 208.542969 C 234.808594 205.980469 227.808594 204.398438 221.742188 203.863281 C 210.808594 202.894531 202.527344 205.351562 199.503906 211.472656 L 196.101562 218.339844 C 193.734375 218.257812 191.417969 218.109375 189.160156 217.90625 C 187.21875 217.726562 185.289062 217.484375 183.371094 217.199219 L 183.371094 199.671875 C 185.394531 199.953125 187.46875 200.191406 189.601562 200.371094 C 193.070312 200.664062 196.648438 200.8125 200.304688 200.8125 C 214.285156 200.8125 227.011719 198.578125 236.289062 194.972656 C 240.144531 193.472656 243.441406 191.699219 246.0625 189.71875 Z M 246.0625 178.277344 C 246.0625 182.019531 241.394531 185.707031 233.839844 188.644531 C 225.328125 191.960938 213.472656 194.011719 200.304688 194.011719 C 196.804688 194.011719 193.414062 193.867188 190.160156 193.597656 C 187.828125 193.402344 185.5625 193.136719 183.371094 192.8125 L 183.371094 175.285156 C 185.382812 175.5625 187.449219 175.800781 189.566406 175.980469 C 193.035156 176.273438 196.632812 176.429688 200.296875 176.429688 C 214.28125 176.429688 227.007812 174.191406 236.28125 170.585938 C 240.136719 169.085938 243.4375 167.316406 246.058594 165.332031 L 246.058594 178.277344 Z M 246.0625 129.484375 C 246.0625 133.226562 241.394531 136.914062 233.839844 139.855469 C 225.328125 143.167969 213.472656 145.222656 200.304688 145.222656 C 187.132812 145.222656 175.28125 143.167969 166.765625 139.855469 C 159.21875 136.914062 154.542969 133.226562 154.542969 129.484375 L 154.542969 116.535156 C 157.164062 118.523438 160.464844 120.289062 164.320312 121.789062 C 173.59375 125.402344 186.320312 127.632812 200.304688 127.632812 C 214.285156 127.632812 227.011719 125.394531 236.289062 121.789062 C 240.144531 120.289062 243.441406 118.519531 246.0625 116.535156 Z M 154.414062 152.082031 C 154.234375 148.636719 154.261719 144.695312 154.34375 140.769531 C 156.996094 142.824219 160.367188 144.640625 164.320312 146.183594 C 173.59375 149.796875 186.320312 152.027344 200.304688 152.027344 C 214.285156 152.027344 227.011719 149.792969 236.289062 146.183594 C 240.144531 144.683594 243.441406 142.914062 246.0625 140.933594 L 246.0625 153.886719 C 246.0625 157.628906 241.394531 161.316406 233.839844 164.257812 C 225.328125 167.570312 213.472656 169.621094 200.304688 169.621094 C 196.792969 169.621094 193.386719 169.476562 190.128906 169.199219 C 187.535156 168.984375 185.023438 168.679688 182.605469 168.300781 C 180.636719 163.199219 174.953125 158.820312 166.792969 155.640625 C 163.15625 154.222656 158.980469 153.019531 154.414062 152.082031 Z M 176.5625 196.730469 C 176.5625 200.472656 171.894531 204.160156 164.339844 207.101562 C 155.828125 210.414062 143.972656 212.46875 130.804688 212.46875 C 117.632812 212.46875 105.78125 210.414062 97.269531 207.101562 C 89.71875 204.160156 85.046875 200.472656 85.046875 196.730469 L 85.046875 183.777344 C 87.667969 185.765625 90.964844 187.53125 94.820312 189.03125 C 104.097656 192.644531 116.824219 194.875 130.804688 194.875 C 144.785156 194.875 157.511719 192.636719 166.789062 189.03125 C 170.644531 187.53125 173.941406 185.761719 176.5625 183.777344 Z M 94.824219 213.425781 C 104.101562 217.039062 116.828125 219.269531 130.808594 219.269531 C 144.792969 219.269531 157.519531 217.03125 166.792969 213.425781 C 170.648438 211.925781 173.949219 210.15625 176.570312 208.171875 L 176.570312 221.125 C 176.570312 224.867188 171.902344 228.558594 164.347656 231.496094 C 155.832031 234.8125 143.980469 236.863281 130.808594 236.863281 C 117.640625 236.863281 105.785156 234.8125 97.273438 231.496094 C 89.722656 228.558594 85.050781 224.867188 85.050781 221.125 L 85.050781 208.171875 C 87.667969 210.15625 90.96875 211.925781 94.824219 213.425781 Z M 85.050781 245.515625 L 85.050781 232.5625 C 87.671875 234.550781 90.96875 236.316406 94.824219 237.816406 C 104.101562 241.429688 116.828125 243.660156 130.808594 243.660156 C 144.792969 243.660156 157.519531 241.421875 166.792969 237.816406 C 170.648438 236.316406 173.949219 234.546875 176.570312 232.5625 L 176.570312 245.515625 C 176.570312 249.257812 171.902344 252.945312 164.347656 255.886719 C 155.832031 259.203125 143.980469 261.253906 130.808594 261.253906 C 117.640625 261.253906 105.785156 259.203125 97.273438 255.886719 C 89.71875 252.945312 85.050781 249.257812 85.050781 245.515625 Z M 166.761719 94.722656 C 175.273438 91.410156 187.128906 89.359375 200.296875 89.359375 C 213.46875 89.359375 225.320312 91.410156 233.835938 94.722656 C 241.382812 97.664062 246.058594 101.351562 246.058594 105.09375 C 246.058594 108.835938 241.390625 112.523438 233.835938 115.464844 C 225.320312 118.777344 213.46875 120.832031 200.296875 120.832031 C 187.128906 120.832031 175.273438 118.777344 166.761719 115.464844 C 159.210938 112.523438 154.539062 108.835938 154.539062 105.09375 C 154.542969 101.351562 159.210938 97.660156 166.761719 94.722656 Z M 97.269531 161.964844 C 105.78125 158.652344 117.632812 156.597656 130.804688 156.597656 C 137.828125 156.597656 144.46875 157.1875 150.433594 158.234375 C 150.46875 158.238281 150.496094 158.246094 150.527344 158.25 C 155.714844 159.164062 160.394531 160.425781 164.347656 161.964844 C 171.894531 164.90625 176.570312 168.59375 176.570312 172.335938 C 176.570312 176.078125 171.902344 179.765625 164.347656 182.707031 C 155.832031 186.019531 143.980469 188.074219 130.808594 188.074219 C 117.640625 188.074219 105.785156 186.019531 97.273438 182.707031 C 89.722656 179.765625 85.050781 176.078125 85.050781 172.335938 C 85.050781 168.59375 89.71875 164.90625 97.269531 161.964844 Z M 164.347656 280.28125 C 155.832031 283.597656 143.980469 285.648438 130.808594 285.648438 C 117.640625 285.648438 105.785156 283.597656 97.273438 280.28125 C 89.722656 277.34375 85.050781 273.65625 85.050781 269.914062 L 85.050781 256.960938 C 87.671875 258.945312 90.96875 260.710938 94.824219 262.210938 C 104.101562 265.824219 116.828125 268.054688 130.808594 268.054688 C 144.792969 268.054688 157.519531 265.820312 166.792969 262.210938 C 170.648438 260.710938 173.949219 258.941406 176.570312 256.960938 L 176.570312 269.914062 C 176.5625 273.648438 171.894531 277.34375 164.347656 280.28125 Z M 200.304688 267.1875 C 196.804688 267.1875 193.414062 267.042969 190.160156 266.773438 C 187.828125 266.578125 185.5625 266.3125 183.371094 265.988281 L 183.371094 248.464844 C 184.253906 248.582031 185.140625 248.703125 186.054688 248.804688 C 187.714844 248.992188 189.425781 249.152344 191.195312 249.273438 C 192.511719 251.371094 194.15625 253.503906 196.101562 255.644531 C 199.519531 259.386719 203.90625 263.207031 209.042969 266.878906 C 206.238281 267.082031 203.320312 267.1875 200.304688 267.1875 Z M 276.78125 276.972656 C 275.125 280.320312 269.292969 281.554688 261.214844 280.835938 C 252.109375 280.027344 240.582031 276.605469 228.789062 270.769531 L 228.761719 270.757812 C 216.992188 264.925781 207.292969 257.832031 201.125 251.074219 C 199.113281 248.871094 197.5 246.746094 196.34375 244.773438 C 196.230469 244.476562 196.074219 244.203125 195.886719 243.953125 C 194.265625 240.914062 193.800781 238.28125 194.765625 236.339844 L 200.507812 224.734375 C 201.972656 227.675781 204.144531 230.722656 206.925781 233.777344 C 213.625 241.113281 224.042969 248.765625 236.601562 254.988281 C 249.136719 261.195312 261.539062 264.84375 271.449219 265.726562 C 275.570312 266.09375 279.3125 265.96875 282.539062 265.351562 Z M 276.78125 276.972656 " fill-opacity="1" fill-rule="nonzero"/></g></svg>