<svg xmlns="http://www.w3.org/2000/svg" xmlns:xlink="http://www.w3.org/1999/xlink" width="30" zoomAndPan="magnify" viewBox="0 0 375 374.999991" height="30" preserveAspectRatio="xMidYMid meet" version="1.0"><defs><clipPath id="b4fe977880"><path d="M 75.167969 75.167969 L 300 75.167969 L 300 300 L 75.167969 300 Z M 75.167969 75.167969 " clip-rule="nonzero"/></clipPath></defs><g clip-path="url(#b4fe977880)"><path fill="#ffffff" d="M 282.378906 164.066406 L 277.574219 164.066406 C 274.910156 164.066406 272.558594 162.34375 271.722656 159.835938 C 270.3125 155.601562 268.640625 151.476562 266.601562 147.558594 C 265.398438 145.152344 265.816406 142.28125 267.75 140.347656 L 271.199219 136.898438 C 277.992188 130.105469 277.992188 118.976562 271.199219 112.1875 L 262.734375 103.828125 C 255.941406 97.035156 244.867188 97.035156 238.023438 103.828125 L 234.574219 107.273438 C 232.691406 109.15625 229.765625 109.625 227.417969 108.425781 C 223.496094 106.4375 219.371094 104.714844 215.136719 103.304688 C 212.578125 102.46875 210.90625 100.117188 210.90625 97.453125 L 210.90625 92.644531 C 210.90625 83.03125 203.070312 75.195312 193.457031 75.195312 L 181.597656 75.195312 C 171.984375 75.195312 164.144531 83.03125 164.144531 92.644531 L 164.144531 97.453125 C 164.144531 100.117188 162.421875 102.46875 159.914062 103.304688 C 155.683594 104.714844 151.554688 106.386719 147.636719 108.425781 C 145.230469 109.625 142.359375 109.207031 140.425781 107.273438 L 136.976562 103.828125 C 130.183594 97.035156 119.058594 97.035156 112.265625 103.828125 L 103.851562 112.238281 C 97.0625 119.03125 97.0625 130.160156 103.851562 136.953125 L 107.300781 140.398438 C 109.183594 142.28125 109.652344 145.152344 108.449219 147.558594 C 106.464844 151.476562 104.742188 155.601562 103.332031 159.835938 C 102.496094 162.394531 100.144531 164.066406 97.480469 164.066406 L 92.671875 164.066406 C 83.007812 164.066406 75.167969 171.902344 75.167969 181.570312 L 75.167969 193.429688 C 75.167969 203.042969 83.007812 210.878906 92.621094 210.878906 L 97.425781 210.878906 C 100.089844 210.878906 102.441406 212.605469 103.277344 215.113281 C 104.6875 219.34375 106.359375 223.472656 108.398438 227.390625 C 109.601562 229.792969 109.183594 232.667969 107.25 234.601562 L 103.800781 238.046875 C 97.007812 244.839844 97.007812 255.96875 103.800781 262.761719 L 112.265625 271.121094 C 119.058594 277.914062 130.132812 277.914062 136.976562 271.121094 L 140.425781 267.671875 C 142.304688 265.792969 145.230469 265.320312 147.582031 266.523438 C 151.503906 268.507812 155.628906 270.230469 159.863281 271.644531 C 162.421875 272.480469 164.09375 274.828125 164.09375 277.496094 L 164.09375 282.351562 C 164.09375 291.96875 171.929688 299.804688 181.542969 299.804688 L 193.402344 299.804688 C 203.015625 299.804688 210.855469 291.96875 210.855469 282.351562 L 210.855469 277.496094 C 210.855469 274.828125 212.578125 272.480469 215.085938 271.644531 C 219.316406 270.230469 223.445312 268.558594 227.363281 266.523438 C 229.765625 265.320312 232.640625 265.738281 234.574219 267.671875 L 238.023438 271.121094 C 244.8125 277.914062 255.941406 277.914062 262.734375 271.121094 L 271.148438 262.707031 C 277.9375 255.917969 277.9375 244.789062 271.148438 237.996094 L 267.699219 234.546875 C 265.816406 232.667969 265.347656 229.792969 266.550781 227.390625 C 268.535156 223.472656 270.257812 219.34375 271.667969 215.113281 C 272.503906 212.550781 274.855469 210.878906 277.519531 210.878906 L 282.328125 210.878906 C 291.941406 210.878906 299.777344 203.042969 299.777344 193.429688 L 299.777344 181.570312 C 299.828125 171.902344 291.992188 164.066406 282.378906 164.066406 Z M 288.597656 193.378906 C 288.597656 196.824219 285.777344 199.59375 282.378906 199.59375 L 277.574219 199.59375 C 270.050781 199.59375 263.414062 204.402344 261.0625 211.558594 C 259.859375 215.214844 258.347656 218.820312 256.621094 222.269531 C 253.226562 229.007812 254.480469 237.109375 259.808594 242.488281 L 263.257812 245.9375 C 265.714844 248.394531 265.714844 252.3125 263.257812 254.765625 L 254.84375 263.179688 C 252.390625 265.632812 248.417969 265.582031 246.015625 263.179688 L 242.566406 259.730469 C 237.238281 254.402344 229.140625 253.09375 222.347656 256.542969 C 218.898438 258.269531 215.347656 259.78125 211.636719 260.984375 C 204.480469 263.335938 199.671875 269.972656 199.671875 277.496094 L 199.671875 282.351562 C 199.671875 285.800781 196.851562 288.570312 193.457031 288.570312 L 181.597656 288.570312 C 178.148438 288.570312 175.378906 285.75 175.378906 282.351562 L 175.378906 277.496094 C 175.378906 269.972656 170.570312 263.335938 163.414062 260.984375 C 159.757812 259.78125 156.152344 258.269531 152.703125 256.542969 C 150.195312 255.289062 147.480469 254.664062 144.8125 254.664062 C 140.320312 254.664062 135.878906 256.4375 132.535156 259.78125 L 129.089844 263.230469 C 126.632812 265.632812 122.714844 265.6875 120.257812 263.230469 L 111.847656 254.820312 C 109.390625 252.363281 109.390625 248.445312 111.847656 245.988281 L 115.296875 242.542969 C 120.625 237.210938 121.929688 229.113281 118.480469 222.320312 C 116.757812 218.875 115.242188 215.320312 114.042969 211.613281 C 111.691406 204.453125 105.054688 199.648438 97.53125 199.648438 L 92.726562 199.648438 C 89.277344 199.648438 86.507812 196.824219 86.507812 193.429688 L 86.507812 181.570312 C 86.507812 178.121094 89.328125 175.351562 92.726562 175.351562 L 97.53125 175.351562 C 105.054688 175.351562 111.691406 170.546875 114.042969 163.386719 C 115.242188 159.730469 116.757812 156.125 118.480469 152.675781 C 121.878906 145.9375 120.625 137.839844 115.296875 132.457031 L 111.847656 129.011719 C 109.390625 126.554688 109.390625 122.636719 111.847656 120.179688 L 120.257812 111.769531 C 122.714844 109.3125 126.632812 109.3125 129.089844 111.769531 L 132.535156 115.214844 C 137.867188 120.546875 146.015625 121.851562 152.757812 118.402344 C 156.203125 116.679688 159.757812 115.164062 163.464844 113.960938 C 170.625 111.613281 175.429688 104.976562 175.429688 97.453125 L 175.429688 92.644531 C 175.429688 89.199219 178.253906 86.429688 181.648438 86.429688 L 193.507812 86.429688 C 196.957031 86.429688 199.726562 89.25 199.726562 92.644531 L 199.726562 97.453125 C 199.726562 104.976562 204.53125 111.613281 211.691406 113.960938 C 215.347656 115.164062 218.953125 116.679688 222.402344 118.402344 C 229.140625 121.800781 237.238281 120.546875 242.621094 115.214844 L 246.066406 111.769531 C 248.472656 109.3125 252.441406 109.3125 254.898438 111.769531 L 263.308594 120.179688 C 265.765625 122.636719 265.765625 126.554688 263.308594 129.011719 L 259.859375 132.457031 C 254.53125 137.789062 253.226562 145.886719 256.675781 152.675781 C 258.398438 156.125 259.914062 159.679688 261.117188 163.386719 C 263.464844 170.546875 270.101562 175.351562 277.625 175.351562 L 282.433594 175.351562 C 285.878906 175.351562 288.648438 178.175781 288.648438 181.570312 L 288.648438 193.378906 Z M 288.597656 193.378906 " fill-opacity="1" fill-rule="nonzero"/></g><path fill="#ffffff" d="M 187.5 128.488281 C 155.003906 128.488281 128.511719 154.925781 128.511719 187.472656 C 128.511719 220.023438 155.003906 246.460938 187.5 246.460938 C 219.996094 246.460938 246.484375 219.972656 246.484375 187.472656 C 246.484375 154.976562 219.996094 128.488281 187.5 128.488281 Z M 187.5 235.226562 C 161.167969 235.226562 139.746094 213.804688 139.746094 187.472656 C 139.746094 161.140625 161.167969 139.71875 187.5 139.71875 C 213.832031 139.71875 235.253906 161.140625 235.253906 187.472656 C 235.253906 213.804688 213.832031 235.226562 187.5 235.226562 Z M 187.5 235.226562 " fill-opacity="1" fill-rule="nonzero"/></svg>