<svg xmlns="http://www.w3.org/2000/svg" xmlns:xlink="http://www.w3.org/1999/xlink" width="30" zoomAndPan="magnify" viewBox="0 0 375 374.999991" height="30" preserveAspectRatio="xMidYMid meet" version="1.0"><defs><clipPath id="34317e1e87"><path d="M 179 139 L 318.75 139 L 318.75 239 L 179 239 Z M 179 139 " clip-rule="nonzero"/></clipPath><clipPath id="0ac03e7207"><path d="M 58 89 L 247 89 L 247 288.9375 L 58 288.9375 Z M 58 89 " clip-rule="nonzero"/></clipPath></defs><g clip-path="url(#34317e1e87)"><path fill="#ffffff" d="M 314.6875 181.5 L 301.367188 168.203125 C 292.886719 159.722656 284.40625 151.261719 275.8125 142.710938 C 275.335938 142.21875 274.601562 141.476562 273.558594 140.828125 C 269.585938 138.269531 264.34375 139.113281 261.5 142.605469 C 260.566406 143.710938 259.914062 144.972656 259.589844 146.273438 C 259.242188 147.574219 259.203125 148.742188 259.203125 149.699219 C 259.179688 153.75 259.179688 157.785156 259.179688 161.84375 L 179.117188 161.84375 L 179.117188 216.070312 L 259.179688 216.070312 L 259.179688 228.738281 C 259.242188 231.878906 260.414062 233.988281 261.4375 235.226562 C 262.820312 236.914062 264.75 238.015625 267.097656 238.429688 C 267.613281 238.542969 268.140625 238.582031 268.632812 238.582031 C 271.238281 238.582031 273.640625 237.433594 275.792969 235.242188 C 288.765625 222.296875 301.734375 209.324219 314.6875 196.375 C 316.222656 194.859375 318.261719 192.425781 318.261719 188.957031 C 318.261719 185.097656 315.660156 182.496094 314.6875 181.5 " fill-opacity="1" fill-rule="nonzero"/></g><g clip-path="url(#0ac03e7207)"><path fill="#ffffff" d="M 239.636719 224.746094 C 235.125 223.316406 230.597656 224.957031 228.039062 229.226562 C 224.347656 235.390625 220.238281 241.265625 214.976562 246.140625 C 190.300781 268.984375 161.808594 275.332031 130.171875 263.945312 C 99.625 252.953125 79.242188 224.226562 78.242188 191.265625 C 77.785156 176.160156 81.605469 162.097656 89.03125 148.933594 C 105.660156 119.445312 141.367188 103.179688 174.351562 110.335938 C 197.621094 115.382812 215.480469 128.152344 227.832031 148.550781 C 230.953125 153.707031 236.753906 155.355469 241.617188 152.449219 C 246.332031 149.625 247.691406 143.753906 244.765625 138.707031 C 240.96875 132.171875 236.542969 126.070312 231.269531 120.675781 C 208.007812 96.855469 179.777344 86.480469 146.660156 90.117188 C 124.644531 92.539062 105.386719 101.535156 89.578125 116.984375 C 66.859375 139.160156 56.554688 166.304688 59.277344 198.089844 C 61.238281 220.90625 70.140625 240.835938 85.851562 257.394531 C 105.5 278.105469 129.886719 288.441406 158.484375 288.46875 C 161.4375 288.46875 164.398438 288.59375 167.34375 288.429688 C 169.707031 288.296875 172.066406 287.882812 174.410156 287.472656 C 205.191406 282.066406 228.679688 265.980469 244.859375 239.230469 C 245.703125 237.832031 246.242188 236.316406 246.324219 234.652344 C 246.535156 230.171875 243.765625 226.054688 239.636719 224.746094 " fill-opacity="1" fill-rule="nonzero"/></g></svg>