<svg xmlns="http://www.w3.org/2000/svg" xmlns:xlink="http://www.w3.org/1999/xlink" width="30" zoomAndPan="magnify" viewBox="0 0 375 374.999991" height="30" preserveAspectRatio="xMidYMid meet" version="1.0"><defs><clipPath id="c8809465be"><path d="M 79.789062 80.03125 L 295.039062 80.03125 L 295.039062 294.855469 L 79.789062 294.855469 Z M 79.789062 80.03125 " clip-rule="nonzero"/></clipPath></defs><g clip-path="url(#c8809465be)"><path fill="#ffffff" d="M 285.5625 275.367188 L 275.714844 285.234375 C 273.992188 286.859375 271.316406 286.859375 269.613281 285.234375 L 228.460938 244.058594 C 226.796875 242.378906 226.796875 239.660156 228.460938 237.980469 L 238.347656 228.109375 C 240.011719 226.429688 242.746094 226.429688 244.425781 228.109375 L 285.5625 269.285156 C 287.246094 270.96875 287.246094 273.683594 285.5625 275.367188 Z M 223.507812 217.804688 L 230.160156 224.4375 L 224.824219 229.792969 L 218.207031 223.175781 C 220.0625 221.476562 221.84375 219.675781 223.507812 217.804688 Z M 88.316406 162.78125 C 88.316406 143.160156 96.121094 124.324219 110.003906 110.460938 C 123.886719 96.574219 142.6875 88.792969 162.328125 88.792969 C 181.949219 88.792969 200.765625 96.574219 214.632812 110.460938 C 228.515625 124.34375 236.320312 143.160156 236.320312 162.78125 C 236.320312 182.40625 228.515625 201.222656 214.632812 215.085938 C 200.765625 228.972656 181.949219 236.773438 162.328125 236.773438 C 142.6875 236.773438 123.871094 228.972656 110.003906 215.085938 C 96.121094 201.222656 88.316406 182.40625 88.316406 162.78125 Z M 291.492188 263.335938 L 250.355469 222.183594 C 248.636719 220.441406 246.4375 219.257812 244.046875 218.738281 C 241.65625 218.222656 239.148438 218.433594 236.894531 219.332031 L 228.824219 211.242188 C 241.121094 194.433594 246.609375 173.605469 244.199219 152.933594 C 241.769531 132.261719 231.613281 113.25 215.761719 99.75 C 199.90625 86.25 179.558594 79.230469 158.75 80.128906 C 137.945312 81.007812 118.246094 89.730469 103.617188 104.53125 C 88.96875 119.351562 80.476562 139.144531 79.828125 159.953125 C 79.175781 180.757812 86.425781 201.050781 100.117188 216.730469 C 113.789062 232.433594 132.914062 242.359375 153.625 244.539062 C 174.320312 246.71875 195.085938 241 211.746094 228.511719 L 219.605469 236.527344 C 218.742188 238.800781 218.554688 241.289062 219.070312 243.679688 C 219.566406 246.070312 220.753906 248.25 222.472656 249.988281 L 263.6875 291.125 C 266.058594 293.515625 269.308594 294.855469 272.675781 294.855469 C 276.039062 294.855469 279.253906 293.515625 281.644531 291.125 L 291.511719 281.257812 C 293.882812 278.886719 295.203125 275.652344 295.203125 272.289062 C 295.203125 268.921875 293.863281 265.710938 291.472656 263.335938 L 291.492188 263.335938 " fill-opacity="1" fill-rule="nonzero"/></g><path fill="#ffffff" d="M 162.097656 199.0625 C 135.515625 199.0625 112.433594 171.636719 106.007812 163.300781 C 112.414062 154.960938 135.4375 127.539062 162.097656 127.539062 C 188.757812 127.539062 211.800781 154.960938 218.1875 163.300781 C 211.800781 171.769531 188.757812 199.0625 162.097656 199.0625 Z M 226.871094 160.929688 C 225.6875 159.226562 197.765625 119.140625 162.097656 119.140625 C 126.433594 119.140625 98.511719 159.226562 97.363281 160.929688 C 96.367188 162.363281 96.367188 164.238281 97.363281 165.671875 C 98.511719 167.390625 126.46875 207.4375 162.097656 207.4375 C 197.746094 207.4375 225.6875 167.390625 226.871094 165.671875 C 227.847656 164.238281 227.847656 162.363281 226.871094 160.929688 " fill-opacity="1" fill-rule="nonzero"/><path fill="#ffffff" d="M 162.097656 178.273438 C 158.140625 178.273438 154.316406 176.6875 151.523438 173.875 C 148.710938 171.082031 147.125 167.277344 147.125 163.300781 C 147.125 159.320312 148.710938 155.515625 151.523438 152.703125 C 154.316406 149.914062 158.140625 148.324219 162.097656 148.324219 C 166.078125 148.324219 169.882812 149.914062 172.691406 152.703125 C 175.484375 155.515625 177.074219 159.320312 177.074219 163.300781 C 177.074219 167.277344 175.484375 171.082031 172.691406 173.875 C 169.882812 176.6875 166.078125 178.273438 162.097656 178.273438 Z M 162.097656 139.96875 C 155.902344 139.96875 149.972656 142.433594 145.574219 146.8125 C 141.195312 151.195312 138.746094 157.140625 138.746094 163.335938 C 138.746094 169.535156 141.214844 175.460938 145.59375 179.839844 C 149.972656 184.222656 155.921875 186.6875 162.117188 186.667969 C 168.3125 186.667969 174.261719 184.203125 178.640625 179.824219 C 183.019531 175.441406 185.46875 169.496094 185.46875 163.300781 C 185.449219 157.101562 182.980469 151.175781 178.601562 146.796875 C 174.222656 142.414062 168.292969 139.96875 162.097656 139.96875 " fill-opacity="1" fill-rule="nonzero"/></svg>