<svg xmlns="http://www.w3.org/2000/svg" xmlns:xlink="http://www.w3.org/1999/xlink" width="30" zoomAndPan="magnify" viewBox="0 0 375 374.999991" height="30" preserveAspectRatio="xMidYMid meet" version="1.0"><defs><clipPath id="82f8bf3456"><path d="M 68.558594 51 L 306.308594 51 L 306.308594 323.925781 L 68.558594 323.925781 Z M 68.558594 51 " clip-rule="nonzero"/></clipPath></defs><g clip-path="url(#82f8bf3456)"><path fill="#ffffff" d="M 116.738281 255.828125 C 115.53125 257.921875 112.855469 258.644531 110.753906 257.445312 L 87.929688 244.269531 C 85.835938 243.058594 85.113281 240.378906 86.3125 238.285156 C 87.519531 236.1875 90.195312 235.464844 92.296875 236.667969 L 115.121094 249.84375 C 117.222656 251.050781 117.945312 253.730469 116.738281 255.828125 Z M 306.285156 268.308594 C 306.285156 283.699219 300.042969 297.648438 289.949219 307.738281 C 279.859375 317.824219 265.917969 324.066406 250.519531 324.066406 C 236.214844 324.066406 223.175781 318.675781 213.308594 309.828125 L 190.046875 323.253906 C 190.042969 323.261719 190.027344 323.269531 190.023438 323.277344 C 189.863281 323.386719 189.695312 323.488281 189.523438 323.578125 C 189.488281 323.597656 189.457031 323.609375 189.414062 323.625 C 189.25 323.707031 189.078125 323.773438 188.910156 323.828125 C 188.890625 323.835938 188.867188 323.84375 188.847656 323.847656 C 188.65625 323.910156 188.457031 323.957031 188.261719 323.992188 C 188.21875 324 188.179688 324.007812 188.132812 324.011719 C 187.925781 324.039062 187.714844 324.0625 187.503906 324.0625 C 187.496094 324.0625 187.488281 324.0625 187.484375 324.0625 C 187.285156 324.0625 187.085938 324.039062 186.890625 324.011719 C 186.835938 324.007812 186.789062 324 186.734375 323.992188 C 186.542969 323.957031 186.351562 323.917969 186.167969 323.855469 C 186.132812 323.84375 186.097656 323.828125 186.070312 323.820312 C 185.914062 323.765625 185.757812 323.707031 185.605469 323.632812 C 185.558594 323.609375 185.519531 323.589844 185.46875 323.570312 C 185.304688 323.480469 185.144531 323.386719 184.992188 323.28125 C 184.980469 323.277344 184.964844 323.269531 184.953125 323.261719 L 70.941406 257.429688 C 69.535156 256.625 68.742188 255.144531 68.742188 253.628906 L 68.742188 121.847656 C 68.640625 120.238281 69.425781 118.628906 70.917969 117.761719 L 185.292969 51.730469 C 186.609375 50.96875 188.296875 50.90625 189.707031 51.726562 L 304.074219 117.753906 C 304.136719 117.789062 304.191406 117.835938 304.253906 117.878906 C 304.300781 117.914062 304.347656 117.941406 304.394531 117.972656 C 304.46875 118.027344 304.546875 118.082031 304.613281 118.136719 C 304.703125 118.210938 304.792969 118.289062 304.871094 118.363281 C 304.914062 118.402344 304.953125 118.4375 304.996094 118.480469 C 305.105469 118.589844 305.207031 118.710938 305.304688 118.832031 C 305.332031 118.867188 305.359375 118.910156 305.382812 118.941406 C 305.472656 119.066406 305.554688 119.1875 305.628906 119.316406 C 305.644531 119.339844 305.652344 119.351562 305.664062 119.367188 C 305.671875 119.371094 305.671875 119.386719 305.679688 119.394531 C 305.734375 119.488281 305.78125 119.589844 305.828125 119.691406 C 305.84375 119.71875 305.855469 119.753906 305.871094 119.78125 C 305.917969 119.882812 305.949219 119.988281 305.992188 120.097656 C 306.003906 120.128906 306.019531 120.15625 306.027344 120.191406 C 306.058594 120.285156 306.082031 120.390625 306.109375 120.484375 C 306.121094 120.527344 306.128906 120.566406 306.140625 120.609375 C 306.164062 120.695312 306.175781 120.785156 306.191406 120.875 C 306.195312 120.929688 306.210938 120.984375 306.21875 121.039062 C 306.222656 121.121094 306.230469 121.203125 306.238281 121.28125 C 306.246094 121.34375 306.246094 121.40625 306.246094 121.472656 C 306.246094 121.496094 306.246094 121.515625 306.246094 121.542969 L 306.25 253.617188 C 306.25 254.726562 305.820312 255.8125 305.035156 256.632812 C 305.855469 260.414062 306.285156 264.308594 306.285156 268.308594 Z M 183.640625 180.304688 L 187.496094 182.53125 L 193.453125 179.089844 L 219.097656 164.285156 L 113.503906 103.316406 L 81.898438 121.5625 Z M 122.285156 98.246094 L 227.878906 159.214844 L 254.972656 143.570312 L 149.375 82.601562 Z M 233.015625 184.871094 L 259.339844 169.667969 L 259.339844 151.183594 L 233.015625 166.386719 Z M 158.144531 77.546875 L 263.75 138.511719 L 293.109375 121.5625 L 187.503906 60.589844 Z M 77.503906 251.105469 L 183.097656 312.070312 L 183.097656 190.109375 L 180.039062 188.34375 L 77.511719 129.15625 Z M 191.90625 312.066406 L 207.105469 303.289062 C 200.480469 295.074219 196.128906 284.949219 195.03125 273.859375 C 195.007812 273.621094 194.996094 273.382812 194.976562 273.136719 C 194.921875 272.460938 194.859375 271.792969 194.824219 271.109375 C 194.785156 270.292969 194.769531 269.46875 194.765625 268.640625 C 194.765625 268.523438 194.757812 268.417969 194.757812 268.308594 C 194.757812 252.914062 201 238.964844 211.09375 228.875 C 221.183594 218.78125 235.125 212.539062 250.523438 212.539062 C 251.410156 212.539062 252.292969 212.566406 253.164062 212.609375 C 253.453125 212.621094 253.738281 212.640625 254.023438 212.664062 C 254.613281 212.695312 255.199219 212.742188 255.785156 212.796875 C 256.121094 212.832031 256.453125 212.867188 256.789062 212.902344 C 257.320312 212.960938 257.851562 213.03125 258.386719 213.105469 C 258.726562 213.152344 259.074219 213.199219 259.414062 213.253906 C 259.949219 213.34375 260.472656 213.441406 261.003906 213.542969 C 261.324219 213.605469 261.648438 213.660156 261.96875 213.726562 C 262.753906 213.890625 263.535156 214.066406 264.316406 214.265625 C 264.675781 214.359375 265.039062 214.464844 265.394531 214.566406 C 265.828125 214.6875 266.273438 214.804688 266.710938 214.941406 C 267.132812 215.070312 267.554688 215.207031 267.980469 215.351562 C 268.332031 215.464844 268.695312 215.589844 269.050781 215.710938 C 269.492188 215.867188 269.9375 216.03125 270.378906 216.203125 C 270.6875 216.320312 270.996094 216.441406 271.300781 216.566406 C 271.773438 216.757812 272.238281 216.941406 272.699219 217.144531 C 272.917969 217.242188 273.136719 217.34375 273.355469 217.4375 C 275.117188 218.230469 276.820312 219.101562 278.472656 220.066406 C 278.601562 220.140625 278.738281 220.214844 278.867188 220.289062 C 279.386719 220.597656 279.898438 220.917969 280.410156 221.238281 C 280.566406 221.335938 280.726562 221.4375 280.875 221.539062 C 281.386719 221.875 281.886719 222.207031 282.382812 222.554688 C 282.5 222.636719 282.621094 222.726562 282.738281 222.808594 C 285.308594 224.628906 287.734375 226.65625 289.957031 228.882812 C 292.800781 231.726562 295.328125 234.886719 297.503906 238.289062 L 297.496094 129.15625 L 268.148438 146.101562 L 268.148438 172.191406 L 268.128906 172.191406 C 268.128906 173.707031 267.335938 175.179688 265.933594 175.992188 L 231.160156 196.066406 C 230.441406 196.578125 229.5625 196.878906 228.613281 196.878906 C 226.183594 196.878906 224.214844 194.90625 224.214844 192.476562 L 224.214844 171.460938 L 191.90625 190.117188 Z M 297.484375 268.308594 C 297.484375 256.15625 292.863281 245.074219 285.289062 236.734375 C 285.289062 236.734375 285.28125 236.726562 285.28125 236.726562 C 284.777344 236.175781 284.257812 235.628906 283.734375 235.105469 C 279.484375 230.859375 274.425781 227.421875 268.8125 225.046875 C 268.8125 225.046875 268.804688 225.046875 268.804688 225.039062 C 268.144531 224.761719 267.46875 224.492188 266.785156 224.242188 C 266.710938 224.214844 266.632812 224.1875 266.566406 224.160156 C 265.925781 223.925781 265.285156 223.710938 264.628906 223.503906 C 264.558594 223.484375 264.5 223.464844 264.429688 223.441406 C 262.996094 223 261.53125 222.625 260.042969 222.316406 C 259.960938 222.304688 259.878906 222.289062 259.796875 222.269531 C 259.175781 222.148438 258.542969 222.03125 257.914062 221.933594 C 257.710938 221.902344 257.503906 221.875 257.300781 221.847656 C 256.773438 221.769531 256.25 221.703125 255.722656 221.648438 C 255.484375 221.621094 255.253906 221.59375 255.015625 221.574219 C 254.480469 221.527344 253.949219 221.484375 253.417969 221.449219 C 253.207031 221.4375 252.988281 221.421875 252.777344 221.410156 C 252.03125 221.375 251.28125 221.355469 250.53125 221.355469 C 237.558594 221.355469 225.824219 226.617188 217.320312 235.109375 C 213.070312 239.363281 209.632812 244.417969 207.257812 250.039062 C 204.882812 255.65625 203.566406 261.839844 203.566406 268.320312 C 203.566406 268.367188 203.574219 268.421875 203.574219 268.46875 C 203.574219 269.226562 203.59375 269.980469 203.628906 270.722656 C 203.632812 270.824219 203.640625 270.925781 203.648438 271.023438 C 203.6875 271.726562 203.738281 272.421875 203.804688 273.117188 C 203.804688 273.132812 203.804688 273.136719 203.8125 273.144531 C 204.9375 284.183594 209.890625 294.09375 217.320312 301.523438 C 225.816406 310.019531 237.558594 315.277344 250.53125 315.277344 C 263.503906 315.277344 275.238281 310.023438 283.742188 301.523438 C 292.222656 293.015625 297.484375 281.269531 297.484375 268.308594 Z M 272.695312 245.058594 L 236.644531 282.320312 L 228.238281 274.1875 C 226.507812 272.511719 223.730469 272.558594 222.050781 274.289062 C 220.371094 276.023438 220.417969 278.800781 222.152344 280.480469 L 233.703125 291.65625 C 235.4375 293.335938 238.214844 293.289062 239.894531 291.554688 L 278.984375 251.144531 C 280.664062 249.414062 280.617188 246.636719 278.882812 244.957031 C 277.148438 243.277344 274.378906 243.320312 272.695312 245.058594 Z M 272.695312 245.058594 " fill-opacity="1" fill-rule="nonzero"/></g></svg>