<svg xmlns="http://www.w3.org/2000/svg" xmlns:xlink="http://www.w3.org/1999/xlink" width="30" zoomAndPan="magnify" viewBox="0 0 375 374.999991" height="30" preserveAspectRatio="xMidYMid meet" version="1.0"><defs><clipPath id="45dd65e43e"><path d="M 65.363281 86 L 309 86 L 309 294.226562 L 65.363281 294.226562 Z M 65.363281 86 " clip-rule="nonzero"/></clipPath></defs><g clip-path="url(#45dd65e43e)"><path fill="#ffffff" d="M 176.363281 223.832031 L 188.0625 223.832031 L 188.0625 232.417969 L 176.363281 232.417969 Z M 209.871094 268.039062 L 209.871094 223.832031 L 195.441406 223.832031 L 195.441406 233.183594 C 195.441406 236.832031 192.472656 239.796875 188.835938 239.796875 L 175.597656 239.796875 C 171.949219 239.796875 168.984375 236.832031 168.984375 233.183594 L 168.984375 223.832031 L 154.5625 223.832031 L 154.5625 268.039062 Z M 91.875 223.832031 L 106.304688 223.832031 L 106.304688 233.183594 C 106.304688 236.832031 109.265625 239.796875 112.910156 239.796875 L 126.148438 239.796875 C 129.792969 239.796875 132.757812 236.832031 132.757812 233.183594 L 132.757812 223.832031 L 147.183594 223.832031 L 147.183594 268.039062 L 91.875 268.039062 Z M 113.683594 223.832031 L 113.683594 232.417969 L 125.382812 232.417969 L 125.382812 223.832031 Z M 106.304688 175.398438 L 106.304688 184.753906 C 106.304688 188.398438 109.265625 191.359375 112.910156 191.359375 L 126.148438 191.359375 C 129.792969 191.359375 132.757812 188.398438 132.757812 184.753906 L 132.757812 175.398438 L 147.183594 175.398438 L 147.183594 216.457031 L 91.875 216.457031 L 91.875 175.398438 Z M 113.683594 175.398438 L 113.683594 183.980469 L 125.382812 183.980469 L 125.382812 175.398438 Z M 154.5625 171.710938 C 154.5625 169.667969 152.910156 168.019531 150.871094 168.019531 L 88.1875 168.019531 C 86.148438 168.019531 84.5 169.667969 84.5 171.710938 L 84.5 271.730469 C 84.5 273.765625 86.148438 275.417969 88.1875 275.417969 L 213.558594 275.417969 C 215.59375 275.417969 217.25 273.765625 217.25 271.730469 L 217.25 220.144531 C 217.25 218.101562 215.59375 216.457031 213.558594 216.457031 L 154.5625 216.457031 Z M 184.9375 121.878906 C 186.125 120.414062 187.261719 119.265625 188.664062 117.984375 C 194.839844 112.347656 203.152344 109.441406 211.132812 109.441406 C 220.984375 109.441406 229.605469 113.445312 236.207031 120.566406 L 237.363281 121.914062 C 247.410156 134.273438 247.410156 152.136719 237.363281 164.5 C 235.730469 166.308594 235.691406 166.527344 233.597656 168.4375 L 232.425781 169.433594 C 220.058594 179.484375 202.1875 179.484375 189.828125 169.421875 L 188.496094 168.28125 C 186.53125 166.472656 186.445312 166.207031 184.902344 164.5 C 174.859375 152.136719 174.859375 134.269531 184.902344 121.914062 C 184.914062 121.90625 184.925781 121.890625 184.9375 121.878906 Z M 179.214844 117.21875 C 187.039062 107.683594 198.480469 102.050781 211.132812 102.050781 C 224.125 102.050781 235.144531 107.738281 243.113281 117.289062 C 249.058594 124.597656 252.292969 133.652344 252.292969 143.203125 C 252.292969 152.761719 249.058594 161.808594 243.113281 169.125 C 241.597656 171.0625 239.003906 173.613281 237.070312 175.167969 C 221.171875 187.972656 198.796875 187.371094 183.546875 173.757812 C 174.953125 166.082031 169.972656 154.8125 169.972656 143.203125 C 169.972656 133.652344 173.207031 124.597656 179.15625 117.289062 C 179.175781 117.269531 179.195312 117.242188 179.214844 117.21875 Z M 301.449219 221.785156 L 289.714844 233.523438 C 289.695312 233.542969 289.652344 233.542969 289.632812 233.523438 L 257.082031 200.96875 C 257.058594 200.949219 257.058594 200.902344 257.082031 200.890625 L 268.8125 189.15625 L 268.894531 189.15625 L 301.449219 221.699219 C 301.480469 221.722656 301.480469 221.769531 301.449219 221.785156 Z M 251.589844 183.667969 C 251.195312 184.0625 250.796875 184.441406 250.394531 184.820312 L 256.554688 190.976562 L 258.910156 188.628906 L 252.75 182.472656 C 252.371094 182.875 251.984375 183.273438 251.589844 183.667969 Z M 233.96875 281.878906 L 233.96875 195.671875 C 212.746094 204.875 187.535156 200.53125 170.671875 183.667969 C 158.125 171.109375 152.628906 154.121094 154.207031 137.691406 L 72.769531 137.691406 L 72.769531 281.878906 C 72.769531 284.757812 75.109375 287.101562 77.984375 287.101562 L 228.753906 287.101562 C 231.632812 287.101562 233.96875 284.761719 233.96875 281.878906 Z M 77.984375 108.953125 L 165.296875 108.953125 C 160.441406 115.449219 157.148438 122.738281 155.40625 130.3125 L 72.769531 130.3125 L 72.769531 114.175781 C 72.769531 111.296875 75.109375 108.953125 77.984375 108.953125 Z M 246.378906 107.96875 C 265.808594 127.398438 265.808594 159.015625 246.378906 178.445312 C 226.945312 197.878906 195.320312 197.878906 175.890625 178.445312 C 156.460938 159.015625 156.460938 127.398438 175.890625 107.96875 C 195.320312 88.535156 226.949219 88.535156 246.378906 107.96875 Z M 306.652344 216.492188 L 274.117188 183.9375 C 271.414062 181.230469 267.09375 181.027344 264.152344 183.4375 L 257.480469 176.765625 C 273.6875 154.40625 271.726562 122.882812 251.589844 102.75 C 229.679688 80.839844 194.277344 80.453125 171.878906 101.578125 L 77.984375 101.578125 C 71.039062 101.578125 65.390625 107.230469 65.390625 114.175781 L 65.390625 281.878906 C 65.390625 288.824219 71.042969 294.476562 77.984375 294.476562 L 228.753906 294.476562 C 235.699219 294.476562 241.34375 288.824219 241.34375 281.878906 L 241.34375 191.800781 C 242.480469 191.097656 243.597656 190.34375 244.6875 189.550781 L 251.363281 196.222656 C 248.960938 199.15625 249.160156 203.480469 251.863281 206.1875 L 284.414062 238.738281 C 287.3125 241.640625 292.027344 241.636719 294.929688 238.738281 L 306.652344 227.007812 C 309.554688 224.101562 309.554688 219.386719 306.652344 216.492188 Z M 306.652344 216.492188 " fill-opacity="1" fill-rule="evenodd"/></g></svg>