<?xml version="1.0" encoding="UTF-8"?>
<svg id="Calque_1" data-name="Calque 1" xmlns="http://www.w3.org/2000/svg" viewBox="0 0 62.29 62.31">
  <path d="m.01,31.03C-.44,14.88,13.52.01,30.89,0c17.41-.01,31.29,13.71,31.4,31.27.1,16.61-13.69,30.89-30.95,31.04C13.85,62.45-.35,47.93.01,31.03Zm31.08,27.69c15.74-.21,27.43-12.7,27.57-27.27.15-15.29-12.06-27.7-27.42-27.81-15.21-.11-27.2,12.09-27.65,26.4-.49,15.82,11.81,28.5,27.5,28.68Z"/>
  <path d="m31.19,36.12c-2.77.02-5.05-2.24-5.04-5.01,0-2.67,2.32-4.96,5-4.95,2.7,0,4.95,2.26,4.96,4.97,0,2.75-2.19,4.97-4.92,4.99Z"/>
  <path d="m52.93,31.17c-.01,2.77-2.19,4.95-4.94,4.95-2.74,0-5.05-2.33-5.01-5.05.04-2.65,2.38-4.93,5.05-4.91,2.72.02,4.91,2.27,4.9,5.01Z"/>
  <path d="m9.35,31.17c0-2.74,2.19-4.98,4.9-5.01,2.72-.03,5.08,2.32,5.05,5.02-.02,2.69-2.3,4.94-5.01,4.94-2.75,0-4.94-2.19-4.95-4.95Z"/>
</svg>