<?xml version="1.0" encoding="UTF-8"?>
<svg id="Calque_1" data-name="Calque 1" xmlns="http://www.w3.org/2000/svg" viewBox="0 0 73.32 78.25">
  <path d="m14.03,31.73c.2.1.35.2.51.26,4.55,1.74,9.02,3.68,13.56,5.45,2.52.99,5.02,2.05,7.55,3.04.71.28,1.29.28,2.01.02,5.2-1.89,10.25-4.17,15.42-6.16,2.06-.79,4.16-1.58,6.3-2.64-1.96-.74-3.77-1.46-5.54-2.31-1.58-.76-1.87-1.83-.8-3.25.54-.71,1.14-.81,1.82-.41,2.33,1.36,4.89,2.2,7.44,2.94,2.69.79,4.26,2.58,5.59,4.83,1.5,2.54,3.07,5.04,4.65,7.53,1.33,2.09,1.03,3.24-1.27,4.01-1.5.51-2.83,1.37-4.31,1.88-.68.24-.55.71-.55,1.17,0,3.5-.03,6.99,0,10.49.03,2.8-.39,5.41-2.21,7.72-1.07,1.35-2.42,2.12-3.92,2.78-4.02,1.76-8.18,3.18-12.2,4.92-3.27,1.41-6.63,2.55-9.9,3.92-1,.42-1.9.44-2.92.04-2.75-1.09-5.61-1.9-8.27-3.17-3.3-1.57-6.83-2.55-10.13-4.07-1.43-.66-2.88-1.23-4.32-1.86-3.73-1.64-5.4-4.68-5.52-8.59-.12-3.98-.06-7.97,0-11.95.01-.9-.29-1.27-1.11-1.62-1.52-.65-3.01-1.36-4.57-1.95-1.33-.51-1.71-1.8-.93-3.07,2.18-3.52,4.39-7.02,6.64-10.51.55-.85,1.3-1.46,2.32-1.81,2.58-.9,5.12-1.92,7.68-2.87,1.21-.44,2.24-.12,2.59.82.43,1.15-.1,1.81-1.13,2.45-1.4.86-3.01,1.16-4.48,1.96Zm20.64,17.89c-.96,1.53-1.98,3-2.82,4.56-1,1.83-1.67,2.2-3.57,1.44-1.33-.53-2.65-1.12-3.97-1.65-4.35-1.75-8.76-3.34-13.07-5.19-.59-.25-.7,0-.69.5.06,3.93-.16,7.87.12,11.8.13,1.84,1.08,3.24,2.77,4.06,1.21.59,2.46,1.11,3.68,1.66,3.31,1.48,6.84,2.43,10.12,4.04,2.05,1,4.28,1.61,6.41,2.45.95.38,1.26.29,1.25-.85-.05-7.29-.02-14.59-.03-21.88,0-.28.12-.6-.19-.92Zm4.09.11c-.34.19-.26.43-.26.63,0,7.43,0,14.85-.02,22.28,0,.98.32,1,1.08.68,2.83-1.17,5.72-2.17,8.53-3.4,3.73-1.62,7.62-2.87,11.34-4.56,2.06-.93,3.24-2.47,3.29-4.69.09-3.76.03-7.51.06-11.27,0-.68-.17-.85-.83-.58-1.32.55-2.63,1.16-3.95,1.68-4.32,1.71-8.67,3.33-12.96,5.13-1.82.77-2.57.36-3.51-1.36-.85-1.55-1.84-3.03-2.77-4.54Zm29.99-7.92c-.15-.26-.23-.41-.33-.56-1.28-2.01-2.58-4-3.81-6.03-.49-.81-.93-1.05-1.88-.65-3.31,1.4-6.69,2.6-10.01,4-4.12,1.74-8.34,3.23-12.45,5-.39.17-1,.16-.5.93,1.38,2.15,2.7,4.33,3.99,6.53.43.73.86.82,1.6.5,1.32-.56,2.61-1.25,3.94-1.73,4.96-1.79,9.74-4.02,14.68-5.83,1.24-.46,2.46-.97,3.71-1.39.48-.16.68-.56,1.06-.77Zm-34.97,2.21c.05-.28-.31-.3-.52-.37-1.47-.54-2.88-1.23-4.31-1.86-3.44-1.52-7.07-2.56-10.49-4.18-2.62-1.24-5.43-2.05-8.13-3.13-.77-.31-1.09-.06-1.47.54-1.15,1.87-2.33,3.73-3.53,5.58-.92,1.42-.88,1.5.7,2.14,3.21,1.29,6.47,2.43,9.65,3.8,4.05,1.76,8.25,3.19,12.3,4.98.77.34,1.22.22,1.58-.52.75-1.55,1.8-2.92,2.71-4.37.51-.82.96-1.67,1.49-2.61Z"/>
  <path d="m34.87,11.01c0-2.92,0-5.83,0-8.75C34.88.75,35.48,0,36.66,0c1.13,0,1.79.68,1.8,2.13.04,6.01.02,12.01.02,18.02,0,.09,0,.18-.01.26-.24,1.01-.56,2-1.8,2.1-.93.08-1.77-.97-1.79-2.23-.04-2.52-.01-5.04-.01-7.55,0-.57,0-1.15,0-1.72Z"/>
  <path d="m27.95,24.24c.11.98-.66,1.5-1.29,1.95-.58.42-1.1-.13-1.55-.56-3.69-3.52-6.93-7.48-10.55-11.08-.77-.77-.74-2.09-.07-2.77.76-.78,1.79-.8,2.68.15,3.49,3.7,6.93,7.45,10.39,11.19.28.3.42.67.4,1.12Z"/>
  <path d="m59.31,12.84c-.02.76-.09,1.28-.5,1.69-3.63,3.59-6.89,7.54-10.55,11.1-.81.79-1.39.8-2.16.04-.78-.77-.95-1.58-.34-2.48.37-.54.81-1.04,1.24-1.52,3-3.27,6.06-6.49,9.12-9.71.57-.6,1.25-.96,2.13-.57.75.33,1.05.89,1.05,1.45Z"/>
</svg>