<?xml version="1.0" encoding="UTF-8"?>
<svg id="Calque_1" data-name="Calque 1" xmlns="http://www.w3.org/2000/svg" viewBox="0 0 96.01 85.51">
  <path d="m79.97,25.63c0,6.3.03,12.61-.03,18.91,0,1.13.24,1.53,1.45,1.51,4.42-.08,8.83,0,13.25-.05,1.03-.01,1.36.3,1.36,1.35-.03,10.47-.03,20.94,0,31.41,0,1.01-.35,1.26-1.29,1.25-3.42-.04-6.85,0-10.27-.03-.85,0-1.46.2-2.06.87-4.66,5.16-12.5,4.97-16.93-.42-.7-.85-1.4-1.18-2.5-1.16-5.56.06-11.12.05-16.67,0-.94,0-1.5.2-1.97,1.1-1.73,3.3-4.53,5.08-8.25,5.15-3.73.07-6.58-1.64-8.44-4.86-.49-.84-1-1.2-1.98-1.15-1.53.08-3.08.08-4.61,0-.88-.04-1.2.31-1.4,1.1-.26,1.04-.18,2.58-1.02,2.95-.79.35-2.05-.37-3.09-.64-4.78-1.27-9.54-2.6-14.33-3.81-1.08-.27-1.43-.64-1-1.67.13-.32.25-.66.28-1,.1-1.19.76-1.11,1.65-.86,4.24,1.17,8.5,2.26,12.73,3.47,1.09.31,1.48.19,1.8-1.02C23.52,52.44,30.47,26.87,37.37,1.29c.29-1.09.65-1.58,1.77-1.11.94.4,2.34.1,1.79,2.11-5.3,19.2-10.49,38.44-15.71,57.66-.5,1.86-.48,1.66,1.36,1.87,2.39.28,3.43-.68,4.21-2.87,2.17-6.06,3.64-12.32,5.4-18.49,3.24-11.36,6.39-22.75,9.54-34.14.27-.99.7-1.3,1.73-1.3,10.37.04,20.74.04,31.12,0,1.1,0,1.43.26,1.42,1.4-.06,6.4-.03,12.8-.03,19.21Zm12.37,37.45c0-4.02-.03-8.04.02-12.05.02-1.08-.26-1.45-1.41-1.45-9.33.05-18.65.04-27.98,0-.94,0-1.4.36-1.83,1.13-1.27,2.3-2.65,4.53-3.91,6.83-.48.89-1.03,1.23-2.07,1.22-6.35-.05-12.7,0-19.05-.06-1.13-.01-1.68.35-2.03,1.4-.45,1.36-1.1,2.65-1.57,4-.3.87-.75,1.21-1.72,1.21-2.03,0-4.06.17-6.09.21-.7.01-1.08.23-1.26.92-.75,2.87-1.51,5.73-2.31,8.59-.19.69,0,.9.66.89,1.19-.02,2.38-.04,3.57.01.77.03.96-.27,1.06-1.01.66-4.82,4.52-8.29,9.28-8.41,4.62-.12,8.65,3.18,9.52,7.94.2,1.07.57,1.31,1.59,1.3,4.86-.06,9.72-.08,14.58,0,1.42.03,1.67-.35,1.57-1.74-.33-4.27,1.46-7.66,5-9.97,3.58-2.34,7.45-2.5,11.28-.54,4.33,2.22,6.61,6.7,5.88,11.48-.17,1.13.04,1.5,1.22,1.43,1.58-.09,3.18-.08,4.76,0,1.01.05,1.26-.33,1.25-1.28-.04-4.02-.02-8.04-.02-12.05Zm-15.93-35.71c0-5.66-.06-11.32.04-16.97.03-1.5-.44-1.75-1.82-1.74-7.49.07-14.99.03-22.48.03-3.31,0-3.32,0-4.22,3.2-3.92,14-7.82,28-11.76,41.99-.28.98-.26,1.38.95,1.34,2.43-.09,4.86-.06,7.29-.01.85.02,1.11-.26,1.1-1.1-.04-2.63-.02-5.26-.02-7.89,0-4.21,1.57-5.79,5.82-5.92,2.48-.08,4.95-.24,7.43-.29.77-.02,1.03-.26,1.04-1.01.02-.94.13-1.88.25-2.81.1-.81-.24-.99-1-1.01-3.27-.05-6.54-.19-9.81-.26-2.55-.05-2.47-.03-2.57-2.66-.05-1.35.39-1.67,1.68-1.64,3.77.08,7.54.01,11.32.04.84,0,1.21-.2,1.35-1.12.31-2.15.72-4.29,1.19-6.42.17-.77.06-1.27-.49-1.83-1.27-1.27-1.95-2.88-2.14-4.64-.21-2.05.38-3.84,2.21-5.02,1.66-1.07,4.67-1.06,6.1-.02.63.46.99,1.08,1.09,1.87.17,1.39.04,2.77-.21,4.14-.27,1.47-.33,2.81.7,4.17,1.19,1.56,1.54,3.5,1.53,5.48-.01,4.91,0,9.83,0,14.74,0,4.01,0,3.97,4.05,4,1.09,0,1.43-.25,1.42-1.39-.06-5.76-.03-11.51-.03-17.27Zm-2.27,38.45c-4.35-.01-7.64,3.26-7.63,7.58,0,4.2,3.29,7.51,7.52,7.58,4.15.07,7.74-3.48,7.71-7.62-.03-4.14-3.44-7.52-7.6-7.53Zm-38.34,14.98c2.75.03,4.86-1.99,4.89-4.68.03-2.72-2.02-4.85-4.71-4.88-2.72-.04-4.85,2.02-4.88,4.7-.03,2.74,1.99,4.84,4.7,4.87Zm23.15-33.4c-2.53,0-4.76.03-6.98-.02-.85-.02-1.12.27-1.1,1.1.05,1.68-.03,3.36.04,5.04.02.55-.44,1.56.5,1.58,1.1.03,2.52.74,3.3-.46,1.47-2.26,2.74-4.65,4.25-7.25Z"/>
</svg>