<?xml version="1.0" encoding="UTF-8"?>
<svg id="Calque_1" data-name="Calque 1" xmlns="http://www.w3.org/2000/svg" viewBox="0 0 69.08 64.25">
  <path d="m34.52,64.25c-10.56,0-21.12,0-31.68,0-2.38,0-2.83-.45-2.83-2.84,0-9.5,0-18.99,0-28.49,0-2.41.56-2.96,3.05-2.97,3.68-.01,7.36,0,11.04,0,2.15,0,1.93.23,1.93-1.86,0-8.4,0-16.81,0-25.21,0-2.29.55-2.86,2.87-2.86,10.43-.01,20.86-.01,31.29,0,2.31,0,2.82.56,2.82,2.9,0,8.53.02,17.07-.03,25.6,0,1.16.31,1.48,1.47,1.46,3.81-.07,7.62-.03,11.44-.03,2.64,0,3.19.55,3.19,3.12,0,9.41,0,18.82,0,28.23,0,2.53-.43,2.96-3.01,2.96-10.52,0-21.03,0-31.55,0Zm-.05-34.31c4.21,0,8.41-.04,12.62.03,1.08.02,1.4-.25,1.4-1.36-.05-6.91-.01-13.82-.04-20.74,0-1.16.52-2.69-.23-3.4-.74-.69-2.25-.15-3.42-.21-.09,0-.18,0-.26,0-.62-.08-.89.18-.83.81.04.39.02.79,0,1.18-.11,2.94-1.81,4.98-4.73,5.38-2.91.4-5.86.39-8.77.02-2.84-.36-4.79-2.48-5.12-5.3q-.25-2.08-2.33-2.08c-.35,0-.71.04-1.05,0-.94-.14-1.16.26-1.15,1.16.04,7.79.03,15.57,0,23.36,0,.91.24,1.19,1.17,1.18,4.25-.05,8.5-.02,12.75-.02Zm16.17,30.04c4.2,0,8.41-.04,12.61.03,1.05.02,1.3-.3,1.29-1.31-.04-7.08-.02-14.17-.02-21.25,0-3.15,0-3.09-3.11-3.17-1.22-.03-1.56.37-1.4,1.48.51,3.46-3.11,6.17-5.9,6.08-2.36-.07-4.74.09-7.09-.05-2.88-.17-5.13-1.83-5.52-4.79-.11-.87.39-2.11-.42-2.55-.75-.41-1.88-.06-2.84-.16-1.1-.12-1.3.37-1.3,1.35.03,7.7.04,15.39,0,23.09,0,1.09.37,1.28,1.35,1.27,4.12-.05,8.23-.02,12.35-.02Zm-32.44,0c3.94,0,7.88,0,11.82,0q2.04,0,2.04-1.98c0-6.95,0-13.91,0-20.86,0-2.84,0-2.75-2.79-2.88-1.44-.06-1.7.44-1.7,1.76,0,3.49-1.91,5.36-5.23,5.72-2.68.29-5.43.13-8.13.01-2.46-.11-4.76-2.34-5.16-4.63-.17-.93.55-2.23-.48-2.72-.82-.39-1.98-.05-2.98-.12-.88-.06-1.1.28-1.09,1.12.03,7.83.03,15.65,0,23.48,0,.85.22,1.11,1.09,1.1,4.2-.04,8.41-.02,12.61-.02Zm.14-25.68c-1.1,0-2.19-.03-3.29.01-.57.02-1.42-.34-1.38.81.03.94-.25,2.16,1.12,2.24,2.4.14,4.83.18,7.22,0,1.43-.1.85-1.47.93-2.34.09-.97-.68-.7-1.19-.71-1.14-.03-2.28,0-3.42,0Zm32.17,3.13c1.14,0,2.27.03,3.41,0,1.57-.04,1.06-1.26,1.17-2.13.13-1-.49-1-1.21-.99-2.19.02-4.37,0-6.56,0-.64,0-1.37-.16-1.27.92.09.96-.28,2.16,1.31,2.2,1.05.03,2.1,0,3.15,0ZM34.51,4.27c-1.09,0-2.18-.03-3.27.01-.47.02-1.29-.34-1.2.65.08.9-.53,2.32.96,2.44,2.34.19,4.71.17,7.05,0,1.45-.1.82-1.46.94-2.32.14-.93-.53-.79-1.09-.79-1.13,0-2.27,0-3.4,0Z"/>
</svg>